<svg xmlns="http://www.w3.org/2000/svg" viewBox="0 0 32 32">
  <defs>
    <linearGradient id="g" x1="0" y1="0" x2="1" y2="1">
      <stop offset="0" stop-color="#58a6ff"/>
      <stop offset="1" stop-color="#d2a8ff"/>
    </linearGradient>
  </defs>
  <rect width="32" height="32" rx="9" fill="url(#g)"/>
  <g transform="translate(5.5 5.5) scale(0.875)">
    <path d="M12 5a3 3 0 1 0-5.997.125 4 4 0 0 0-2.526 5.77 4 4 0 0 0 .556 6.588A4 4 0 1 0 12 18Z" fill="#fff" fill-opacity="0.97"/>
    <path d="M12 5a3 3 0 1 1 5.997.125 4 4 0 0 1 2.526 5.77 4 4 0 0 1-.556 6.588A4 4 0 1 1 12 18Z" fill="#fff" fill-opacity="0.97"/>
    <path d="M12 5.4V17.6" stroke="#58a6ff" stroke-opacity="0.4" stroke-width="1.1" stroke-linecap="round"/>
    <path d="M15 13a4.5 4.5 0 0 1-3-4 4.5 4.5 0 0 1-3 4" stroke="#58a6ff" stroke-opacity="0.45" stroke-width="1.3" stroke-linecap="round" stroke-linejoin="round" fill="none"/>
  </g>
</svg>
